<?xml version="1.0" encoding="UTF-8" standalone="no"?><!DOCTYPE svg PUBLIC "-//W3C//DTD SVG 1.1//EN" "http://www.w3.org/Graphics/SVG/1.1/DTD/svg11.dtd"><svg width="100%" height="100%" viewBox="0 0 7419 8590" version="1.1" xmlns="http://www.w3.org/2000/svg" xmlns:xlink="http://www.w3.org/1999/xlink" xml:space="preserve" xmlns:serif="http://www.serif.com/" style="fill-rule:evenodd;clip-rule:evenodd;stroke-linecap:round;stroke-linejoin:round;stroke-miterlimit:1.5;"><g id="Gemini_Generated_Image_jluwrrjluwrrjluw.png"><path d="M251.683,5716.449c0,0 1416.188,937.575 2982.946,937.5c1566.758,-0.075 3063.529,-966.667 3063.529,-966.667" style="fill:#e0dbc8;stroke:#e0dbc8;stroke-width:4.17px;"/><path d="M4594.179,561.753c94.033,5.779 2524.758,-584.129 2597.333,-561.096c91.65,29.087 147.975,260.683 -0.692,292.883c-249.25,53.983 -2211.596,451.204 -2235.483,461.221c-679.588,137.596 -677.35,140.121 -1355.821,277.854c-409.671,83.162 -715.146,123.812 -722.733,179.558c-15.483,113.771 -36.242,169.496 78.129,156.15c1074.4,-125.363 2042.842,-248.821 2220.358,-271.45c175.421,-22.363 194.658,0.004 211.979,-49.962c1.125,-3.25 -8.508,-3.963 -7.379,-7.213c62.521,43.967 71.575,21.771 1182.525,-107.713c42.846,-4.992 41.25,-7.137 535.058,-66.704c131.1,-15.817 338.092,-81.442 319.633,174.025c-10.371,143.554 -127.146,101.679 -1343.875,230.721c-324.842,34.45 -325.925,24.863 -389.913,40.838c-169.942,22.025 -2744.492,265.804 -2757.067,281.517c-54.821,68.479 304.583,330.425 44.479,958.458c-54.812,132.354 -221.688,440.904 33.804,927.958c7.175,13.679 8.812,23.958 439.1,23.9c74.658,-0.008 283.688,-356.267 646.867,-442.529c519.338,-123.35 597.825,590.95 598.638,591.833c18.604,20.225 1268.383,251.146 1689.646,942.008c1.654,2.712 2.467,1.604 33.312,21.667c3.883,73.938 130.504,263.721 67.504,517.492c-17.687,71.25 -171.962,1081.079 -993.946,1869.792c-55.65,53.396 -45.262,61.925 -39.637,64.092c10.667,4.108 71.546,5.767 135.85,41.825c82.046,46 86.633,-92.296 255.996,-93.929c387.288,-3.737 423.95,130.4 383.358,372.262c-20.35,121.25 186.429,859.813 -570.829,1169.583c-13.417,5.487 -228.333,127.083 -405.029,-135.179c-104.446,-155.021 -16.688,-210.837 -71.371,-261.133c-293.058,-269.546 -56.212,-847.938 -152.992,-784.046c-199.825,131.925 -214.979,127.271 -209.413,151.954c14.087,62.471 115.779,306.892 -90.042,427.775l-3,12.85c3.504,2.962 -12.379,7.558 -8.875,10.521c36.796,31.125 46.267,13.175 82.058,44.163c100.288,86.817 209.788,531.733 -214.346,543.283c-603.204,16.425 -582.596,-181.6 -644.829,-139.775c-57.725,38.796 -79.754,269.617 -443.042,95.404c-227.033,-108.871 -131.804,-319.763 -119.733,-346.492c12.421,-27.504 132.375,-260.608 74.483,-259.708c-234.363,3.642 -240.779,5.212 -246.221,24.242c-17.342,60.658 -14.708,472.492 -715.079,582.454c-35.387,5.554 -362.054,94.517 -422.342,-302.433c-16.137,-106.246 69.383,-150.058 -19.667,-170.371c-266.171,-60.721 -218.083,-455.375 -220.75,-458.5c-12.071,-14.125 -137.812,-87.325 -153.588,-61.679c-108.483,176.342 26.475,227.354 -103.988,386.321c-69.917,85.192 24.779,79.208 65.417,180.233c78.625,195.462 -180.817,521.017 -402.354,401.333c-4.775,-2.579 -58.696,-51.704 -96.762,-23.604c-395.312,291.804 -1056.471,-17.292 -789.012,-552.842c21.729,-43.513 -46.658,-67.046 -56.221,-204.858c-9.558,-137.8 -60.433,-127.508 -59.025,-267.45c4.158,-412.954 402.913,-246.346 442.9,-301.971c99.483,-138.392 106.254,-150.537 286.533,-157.554c117.217,-4.562 -463.788,-318.029 -834.213,-1414.7c-268,-793.438 -6.492,-949.112 18.337,-1055.479c21.229,-11.029 12.283,-21.079 213.479,-209.388c59.517,-55.704 -33.863,-89.833 24.212,-148.892c7.421,-7.546 269.317,-255.625 322.708,-217.633c18.883,13.437 45.75,90.587 83.575,74.217c446.637,-193.329 445.671,-192.225 911.963,-335.125c117.2,-35.917 -146.246,-293.65 -147.971,-690.767c-2.217,-510.629 337.117,-615.496 127.8,-1195.333c-39.358,-109.029 -81.267,-77.421 -403.75,-44.667c-235.596,23.929 -190.25,-158.925 -63.271,-176.058c26.304,-3.55 25.962,-1.704 329.571,-38.096c49.646,-5.95 34.279,-95.042 -14.054,-84.975c-140.425,29.246 -492.679,148.979 -445.65,-37.113c16.767,-66.354 39.133,-58.238 997.629,-276.475c762.046,-173.508 2458.6,-543.779 2519.733,-577.5l-0.008,0.004Z" style="fill:#3b455f;"/><path d="M5683.295,1310.862c14.988,97.496 891.742,771.408 898.987,2295.312c2.571,540.862 -157.021,965.879 -170.208,1009.508c-30.842,-20.062 -31.654,-18.954 -33.312,-21.667c-421.267,-690.862 -1671.046,-921.783 -1689.646,-942.008c-0.813,-0.883 -79.304,-715.188 -598.638,-591.833c-363.179,86.263 -572.204,442.521 -646.867,442.529c-430.292,0.058 -431.925,-10.221 -439.1,-23.9c-255.492,-487.058 -88.617,-795.608 -33.804,-927.958c260.1,-628.033 -99.304,-889.979 -44.479,-958.458c12.579,-15.712 2587.125,-259.492 2757.067,-281.517l-0,-0.008Z" style="fill:#e31622;"/><path d="M4594.179,561.753c-61.133,33.725 -1757.688,403.992 -2519.733,577.5c-958.496,218.238 -980.858,210.117 -997.629,276.475c-47.029,186.096 305.225,66.358 445.65,37.112c48.333,-10.067 63.704,79.025 14.054,84.975c-303.604,36.392 -303.267,34.546 -329.571,38.096c-126.979,17.129 -172.325,199.983 63.271,176.058c322.488,-32.754 364.392,-64.362 403.75,44.667c209.317,579.838 -130.017,684.7 -127.8,1195.333c1.725,397.117 265.171,654.85 147.971,690.767c-466.292,142.9 -465.325,141.796 -911.963,335.125c-37.825,16.371 -64.692,-60.779 -83.575,-74.217c-53.392,-37.988 -315.292,210.092 -322.708,217.633c-58.079,59.054 35.304,93.187 -24.212,148.892c-201.2,188.308 -192.254,198.358 -213.479,209.388c-470.1,-1633.108 324.792,-3157.212 1613.592,-3843.892c814.958,-434.213 1827.408,-533.579 2842.387,-113.913l-0.004,0Z" style="fill:#e31622;"/><path d="M1216.12,7062.257c-36.742,-39.737 -393.054,-327.925 -634.875,-693.712c-132.654,-200.658 -250.962,-451.883 -314.5,-621.821c-20.029,-53.571 -36.437,-99.067 -42.917,-132.35c-8.371,-43.004 -2.95,-65.625 3.558,-58.958c102.229,104.708 214.112,203.558 336.896,288.512c195.012,134.929 417.517,236.975 672.521,323.983c91.808,31.325 199.15,65.279 300.604,93.908c28.954,8.171 170.846,47.092 361.096,84.9c95.883,19.054 204.05,34.717 316.233,52.312c194.417,30.492 400.854,50.458 576.375,60.958c38.517,2.304 565.967,12.638 739.346,7.475c228.808,-6.813 435.008,-24.475 635.717,-50.6c1705.308,-221.95 2082.046,-889.492 2131.988,-901.088c9.117,18.867 -182.542,477.796 -299.875,668.838c-272.179,443.163 -618.717,845.854 -712.467,869.85c-17.325,4.433 -129.383,33.117 -180.962,131.279c-54.133,103.021 -341.867,267.917 -386.679,250.117c-75.762,-30.096 -74.962,-26.754 -155.729,-39.767c-89.163,-14.367 7.008,-222.546 -299.917,-248.588c-53.171,-4.512 -70.1,-127.646 -253.742,-147.467c-310.475,-33.508 -352.604,79.904 -392.975,196.954c-13.796,40.004 -257.046,31.658 -275.638,268.9c-21.946,280.104 155.262,326.733 155.25,346.079c-0.017,26.85 -165.6,24.821 -256.842,26.262c-83.721,1.325 -9.942,-143.633 -180.938,-334.904c-296.517,-331.667 -1042.008,-57.312 -1158.583,7.638c-43.733,24.367 -190.733,-81.004 -205.35,-91.479c-30.15,-21.608 -13.729,-351.171 -330.242,-305.904c-84.546,12.092 -89.808,10.888 -147.346,-51.346l-0.008,0.017Z" style="fill:#dedbc7;"/><path d="M828.22,8497.495c-47.575,-0.275 -477.287,-2.75 -465.154,-370.542c5.696,-172.612 143.7,-170.608 63.637,-273.925c-91.283,-117.8 -15.992,-163.308 -79.208,-251.75c-49.154,-68.767 -94.504,-363.462 150.446,-360.496c91.008,1.104 232.929,14.8 244.579,-14.658c49.804,-125.946 57.025,-164.992 306.092,-148.488c149.021,9.875 126.942,147.363 205.533,137.25c118.75,-15.283 346.258,-94.867 339.712,233.917c-1.942,97.429 -79.775,132.071 -72.325,173.821c29.642,166.083 41.046,257.562 -171.825,301.812c-102.963,21.404 340.863,130.938 166.596,371.496c-225.363,311.096 -314.975,17.113 -384.258,57.875c-11.196,6.588 -37.146,45.492 -88.15,80.017c-58.492,39.596 -197.892,60.946 -215.675,63.671Z" style="fill:#f4f4ee;"/><path d="M4451.97,7912.503c-67.521,13.092 -44.692,37.35 -60.079,104.637c-21.642,94.617 468.733,-114.225 398.683,313.1c-43.075,262.779 -619.275,139.517 -734.721,67.013c-107.05,-67.229 -114.042,-217.683 -161.117,-99.413c-25.354,63.696 -87.85,310.596 -384.771,137.783c-200.033,-116.421 40.104,-346.3 94.875,-671.054c11.837,-70.2 -201.408,20.408 -178.558,-299.579c14.154,-198.229 245.142,-119.396 260.908,-186.788c4.129,-17.65 3.55,-269.35 323.742,-194.267c201.087,47.154 128.913,167.458 188.425,160.854c192.758,-21.392 209.671,14.938 257.442,203.4c20.175,79.592 332.596,-66.592 302.325,299.992c-14.163,171.492 -167.362,158.696 -307.154,164.321Z" style="fill:#f4f4ee;"/><path d="M5704.975,7589.953c-25.571,-148.396 -17.258,-148.279 -27.425,-297.933c-19.975,-294.079 509.029,-239.188 475.075,-0.175c-42.325,297.942 30.396,301.754 -22.117,597.25c-72.279,406.721 -464.746,585.421 -593,612.392c-143.533,30.187 -345.158,-209.379 -221.579,-344.758c51.475,-56.392 -37.875,-19.542 -106.542,-79.704c-112.087,-98.212 -102.983,-444.079 -97.042,-501.742c33.004,-320.25 66.729,-448.121 251.925,-434.708c378.188,27.388 204.45,288.212 242.833,335.204c48.629,59.529 47.746,58.962 73.829,130.017c1.654,101.358 -4.637,102.508 -21.954,139.283c-8.354,17.742 -166.979,354.588 -59.042,237.942c112.254,-121.312 105.9,-360.533 105.038,-393.071l0,0.004Z" style="fill:#f5f5ee;"/><path d="M3590.841,5145.145c-4.879,-60.592 64.1,-258.783 -107.746,-460.325c-280.613,-329.104 -916.292,-23.467 -732.067,496.15c11.704,33.012 9.062,32.479 18.221,65.3c-103.258,74.033 -146.996,3.696 -153.483,-6.742c-439.775,-707.312 11.883,-1981.875 779.608,-1144.404c462.308,504.308 339.413,1085.992 284.642,1090.842c-16.454,1.458 -14.738,-2.092 -89.175,-40.821Z" style="fill:#e1dcc8;"/><path d="M2145.116,8189.528c25.913,-164.225 112.221,-155.8 258.742,-172.679c110.571,-12.737 245.079,-54.821 267.467,-110.842c68.117,-170.446 -482.117,43.2 -521.233,58.388c-173.075,67.2 -306.067,-229.721 -227.975,-353.138c63.8,-100.829 547.225,-178.525 608.558,-186.271c676.046,-85.392 818.587,769.263 154.7,962.542c-499.412,145.396 -512.254,-35.325 -540.258,-198Z" style="fill:#f5f5ef;"/><path d="M3446.241,4055.087c-79.071,-74.667 -132.771,-95.358 -106.675,-163.217c251.5,-653.933 1012.15,-1115.55 1234.487,-457.796c105.167,311.125 15.933,851.217 -57.854,827.246c-208.346,-67.683 -209.212,-66.296 -219.454,-73.712c-110.763,-478.608 -615.288,-478.837 -814.333,-167.2c-14.067,22.025 -12.292,23.025 -36.171,34.679Z" style="fill:#e1dbc8;"/><path d="M1111.795,7521.899c-76.063,13.15 -63.346,37.533 -55.217,115.346c9.921,95.008 337.379,-90.175 345.425,47.688c8.017,137.358 -66.679,114.217 -273.412,134.358c-135.783,13.229 -62.512,144.45 -29.758,161.004c27.521,13.908 324.171,163.808 323.708,209.221c-0.121,11.713 -61.808,135.467 -118.275,104.342c-10.129,-5.583 -86.317,-64.108 -164.767,-113.071c-5.262,-3.288 -68.975,-43.05 -77.175,-7.829c-75.204,323.004 -583.304,216.346 -564.854,-46.362c14.413,-205.217 329.683,-201.108 362.854,-200.679c48.592,0.633 40.654,-93.083 -0.367,-93.75c-11.817,-0.192 -383.462,30.5 -354.6,-161.417c13.804,-91.792 142.929,-143.654 71.113,-141.65c-43.083,1.204 -127.096,25.683 -130.375,-47.938c-6.938,-155.629 90.929,-106.708 177.725,-105.871c180.183,1.737 255.617,9.788 256.15,-36.013c0.204,-17.433 -20.458,-132.671 42.921,-132.075c103.938,0.975 170.129,-29.746 137.367,67.6c-31.083,92.35 18.179,90.483 115.054,80.783c158.821,-15.908 270.9,-48.212 280.654,15.45c1.325,8.646 13.475,87.954 -14,108.421c-18.696,13.925 -303.646,40.021 -330.167,42.446l-0.004,-0.004Z" style="fill:#e31622;"/><path d="M4955.333,754.757c208.992,103.983 378.508,249.154 424.533,284.933c-1.125,3.25 8.508,3.963 7.379,7.213c-17.321,49.967 -36.558,27.6 -211.979,49.962c-177.513,22.629 -1145.958,146.083 -2220.358,271.45c-114.371,13.346 -93.613,-42.379 -78.129,-156.15c7.587,-55.746 313.062,-96.392 722.733,-179.558c678.471,-137.729 676.233,-140.258 1355.821,-277.854l0,0.004Z" style="fill:#e31622;"/><path d="M3741.412,938.541c-206.4,42.683 -2555.379,528.438 -2581.792,524.792c-23.871,-3.296 -44.225,-44.117 16.417,-58.633c989.267,-236.808 993.562,-209.629 1983.379,-446.287c243.792,-58.288 244.921,-52.288 3055.733,-692.704c58.604,-13.354 161.442,-51.25 171.958,1.746c1.992,10.025 24.1,121.421 2.612,127.729c-207.517,60.938 -215.137,25.842 -2648.308,543.358Z" style="fill:#e0decc;"/><path d="M5679.966,4338.207c-128.442,7.542 -127.404,8.779 -253.121,33.454c-69,13.542 -105.529,-139.471 -249.292,-96.929c-56.071,16.592 -57.312,21.908 -112.979,-4.221c-132.812,-62.346 -206.038,106.308 -266.429,100.108c-45.525,-4.671 -199.671,-62.5 -189.867,-103.004c58.717,-242.612 67.725,-240.271 77.083,-488.283c3.854,-102.138 669.392,170.825 724.929,193.604c745.217,305.642 963.012,736.592 853.637,654.492c-265.042,-198.95 -277.633,-255.613 -583.962,-289.221Z" style="fill:#e0dbc8;"/><path d="M5994.004,5325.966c254.133,99.087 217.746,152.729 203.675,168.517c-54.333,60.946 -63.25,87.392 -128.158,39.092c-213.796,-159.092 -317.85,-39.729 -659.142,-223.046c-360.558,-193.662 -392.292,-146.358 -756.992,38.692c-297.196,150.8 -544.95,-14.604 -730.154,386.7c-118.596,256.979 -116.571,260.175 -315.604,460.042c-96.558,96.963 -113.858,192.679 -164.604,195.271c-116.404,5.95 -111.771,-19.883 -109.233,-28.554c87.704,-299.987 235.392,-214.062 466.629,-695.604c244.546,-509.254 438.475,-262.392 936.142,-529.875c530.225,-284.983 584.429,57.263 974.283,126.167c144.458,25.533 143.225,22.217 283.158,62.6Z" style="fill:#e0dbc8;"/><path d="M3253.483,5317.145c-499.608,114.629 -491.833,266.175 -991.371,147.283c-731.75,-174.158 -679.946,136.463 -1116.658,319.429c-195.621,81.958 -390.546,69.333 -423.529,51.467c-17.633,-9.55 -276.042,-149.508 -191.267,-162.075c232.175,-34.404 338.821,178.492 884.912,-218.604c662.267,-481.575 790.104,46.354 1350.329,-132.092c392.679,-125.079 504.558,-292.167 989.392,-25.175c86.587,47.683 156.954,78.921 140.704,102.004c-61.379,87.179 -79.708,78.117 -87.954,74.037c-142.704,-70.562 -280.854,-185.083 -554.554,-156.279l-0.004,0.004Z" style="fill:#e0dbc9;"/><path d="M4702.783,1348.332c-138.442,15.358 -1059.625,117.554 -1732.604,172.242c-67.108,5.454 -90.629,10.496 -88.763,-56.492c0.896,-32.2 21.442,-24.704 1349.317,-190.092c182.7,-22.754 2251.321,-280.404 2285.237,-272.263c19.688,4.725 68.425,152.146 -1.258,163.088c-6.05,0.95 -1623.667,161.129 -1811.929,183.517Z" style="fill:#dfdecb;"/><path d="M1732.666,2490.291c16.012,-44.15 112.408,-309.933 42.567,-585.496c-45.892,-181.058 -212.525,-445.275 -129.438,-477.021c79.254,-30.283 109.904,-45.717 124.663,36.85c39.058,218.504 110.438,294.879 138.671,394.954c167.637,594.238 -221.421,711.333 -144.838,1241.683c47.317,327.704 309.267,602.175 120.483,1056.508c-140.021,336.979 -111.104,349.354 -132.929,372.233c-8.308,8.708 -118.658,66.133 -120.287,66.379c-98.279,14.883 129,-496.4 130.471,-500.596c56.717,-161.683 38.567,-440.638 7.467,-535.487c-125.771,-383.583 -294.233,-474.912 -36.821,-1070.012l-0.008,0.004Z" style="fill:#e0dcc9;"/><path d="M2311.979,3495.045c135.254,465.5 40.283,471.779 -109.733,931.596c-5.446,16.696 -10.738,20.383 -112.738,6.525c-138.875,-18.871 250.65,-306.612 94.758,-890.287c-74.788,-280.017 -301.008,-435.267 -43.437,-1021.462c240.65,-547.688 -128.8,-902.4 -107.4,-1150.704c2.65,-30.742 138.408,-62.767 144.887,-31.283c20.629,100.204 3.45,101.496 26.571,201.983c38.483,167.237 302.312,514.262 77.875,980.313c-232.879,483.579 -16.988,867.875 29.217,973.325l0,-0.004Z" style="fill:#e0dcca;"/><path d="M2064.158,2538.491c-41.938,91.608 -105.579,250.029 -106.308,411.608c-0.804,177.558 65.717,359.792 117.913,481.625c191.892,447.875 29.179,657.679 -81.679,977.663c-14.512,41.887 -27.875,27.712 -93.171,50.433c-43.908,15.279 -69.837,43.971 -65.767,-3.062c21.5,-248.508 354.004,-432.837 67.392,-1087.996c-305.104,-697.425 298.896,-880.579 48.917,-1575.558c-29.621,-82.35 -97.021,-154.7 -123.871,-360.975c-7.446,-57.183 138.679,-94.979 145.771,-30.85c48.275,436.567 348.808,573.55 90.808,1137.113l-0.004,0Z" style="fill:#e0dcca;"/><path d="M2539.375,3545.041c100.458,396.383 4.412,393.496 -49.221,521.721c-148.4,354.788 -35.038,515.25 -167.729,441.862c-100.379,-55.517 -62.692,-83.479 -23.158,-191.408c3.688,-10.062 257.996,-441.783 49.45,-896.283c-357.971,-780.167 258.342,-893.933 39.242,-1578.808c-8.337,-26.067 -182.971,-398.558 -144.421,-520.863c8.521,-27.029 146.333,-59.438 148.767,-15.442c15.433,278.962 42.463,273.179 140.342,535.167c160.679,430.087 -117.121,745.642 -137.925,1025.25c-24.558,330 55.246,454.054 144.646,678.804l0.008,0Z" style="fill:#e0dcca;"/><path d="M3590.841,5145.145c-35.025,-8.167 -34.808,-8.071 -37.825,-8.821c-39.688,-9.842 -37.525,-11.587 -77.071,-21.771c-120.412,-31.004 -220.363,-23.242 -312.021,0.112c-136.563,34.796 -254.713,104.208 -394.671,131.604c-9.158,-32.821 -6.517,-32.288 -18.221,-65.3c-184.225,-519.617 451.454,-825.258 732.067,-496.15c171.846,201.542 102.867,399.733 107.746,460.325l-0.004,0Z" style="fill:#cf5350;"/><path d="M5315.962,5326.216c287.429,153.133 299.196,119.442 536.067,175.821c37.954,9.033 268.038,74.742 186.512,147.217c-75.404,67.033 -86.413,47.163 -153.567,19.633c-180.404,-73.95 -316.008,-18.263 -500.762,-131.367c-288.754,-176.767 -328.783,-185.233 -606.679,-17.462c-331.537,200.154 -564.525,21.008 -693.654,336.242c-96.15,234.721 -88.946,242.458 -271.817,418.05c-38.846,37.3 -79.033,99.358 -116.879,102.617c-44.758,3.854 -172.267,33.829 -120.913,-42.8c128.742,-192.112 225.971,-177 354.312,-461.233c132.254,-292.904 143.079,-339.954 475.904,-389.871c481.096,-72.158 475.871,-375.967 911.479,-156.846l-0.004,-0Z" style="fill:#e0dbc9;"/><path d="M4829.008,5021.57c-103.925,52.833 -151.05,94.671 -214.792,28.608c-74.35,-77.058 -45.771,-92.179 6.304,-185.479c32.258,-57.796 -141.383,-143.637 52.792,-247.412c47.804,-25.55 0,-179.379 124.925,-184.283c74.042,-2.904 80.475,-3.042 117.521,-66.217c63.95,-109.054 186.933,9.225 214.658,2.296c82.737,-20.675 120.8,-91.204 206.987,54.038c28.304,47.7 193.608,-12.6 187.846,175.529c-2.2,71.775 34.196,52.354 69.679,99.863c62.808,84.092 -10.446,173.392 -14.117,181.738c-18.383,41.796 81.333,120.817 2.225,204.125c-64.462,67.883 -146.342,10.142 -250.575,-54.517c10.238,-17.112 90.438,-151.196 61.075,-241.671c-133.942,-412.675 -692.362,-202.758 -564.517,233.379l-0.013,0.004Z" style="fill:#95a999;"/><path d="M2720.725,2488.649c-31.558,72.663 -157.646,280.121 -110.667,644.792c28.758,223.242 253.158,582.188 154.15,643.275c-109.429,67.521 -122.383,65.592 -124.125,49.95c-28.162,-252.913 -22.904,-254.317 -121.146,-490.554c-199.346,-479.362 76.446,-780.583 114.583,-1069.717c59.742,-452.921 -227.692,-705.062 -180.054,-975.137c7.583,-43 144.637,-79.796 146.196,-16.583c12.208,495.883 220.517,467.271 186.175,961.629c-9.15,131.733 -21.721,128.238 -65.108,252.346l-0.004,0Z" style="fill:#e0dcca;"/><path d="M2903.858,2549.182c-280.479,734.221 107.054,827.408 91.683,1182.621c-0.079,1.829 8.996,33.608 -120.275,21.921c-44.837,-4.054 -14.704,-136.617 -113.671,-350.279c-325.267,-702.204 220.7,-867.396 59.783,-1512.163c-12.179,-48.796 -276.483,-646.6 -118.154,-678.446c8.279,-1.667 104.108,-20.942 105.546,0.275c0.258,3.833 -11.896,94.317 7.513,234.788c53.537,387.479 340.562,497.975 87.579,1101.283l-0.004,0Z" style="fill:#dfdbc9;"/><path d="M1735.308,3920.67c-51.929,334.083 -153.496,328.833 -182.421,614.758c-3.9,38.558 27.854,93.696 -95,121.062c-84.321,18.783 -314.85,-594.471 -360.996,-598.104c-51.8,-4.079 -222.196,205.071 -262.1,142.204c-72.417,-114.1 -3.863,-118.467 118.546,-172.371c176.529,-77.738 312.571,-144.433 742.692,-259.458c66.371,-17.75 39.404,142.321 39.283,151.904l-0.004,0.004Z" style="fill:#e1dcc9;"/><path d="M4326.883,5706.882c181.054,-31.921 278.792,-27.267 404.312,-92.212c276.967,-143.3 302.508,-216.387 590.167,-45.867c284.342,168.554 374.325,79.058 549.354,161.067c53.471,25.054 -94.462,117.3 -143.163,110.175c-220.75,-32.313 -234.788,7.042 -422.842,-111.929c-222.921,-141.025 -255.629,-149.971 -495.354,13.767c-268.167,183.162 -469.858,-53.488 -591.163,306.637c-97.554,289.621 -133.975,297.521 -365.796,319.679c-86.5,8.267 91.675,-135.025 107.238,-150.683c212.742,-214.092 78.738,-394.279 367.237,-510.633l0.008,0Z" style="fill:#e0dcc9;"/><path d="M939.291,5322.67c150.312,162.133 269.596,208.85 185.442,245.367c-280.371,121.663 -363.062,39.233 -384.892,17.475c-104.933,-104.596 -519.329,-555.013 -490.821,-607.546c1.05,-1.933 176.425,-227.421 200.667,-217.95c55.579,21.708 18.746,60.125 489.608,562.654l-0.004,0Z" style="fill:#e1dcc8;"/><path d="M3446.241,4055.087c23.883,-11.654 22.104,-12.654 36.171,-34.679c199.046,-311.638 703.567,-311.408 814.333,167.2c-7.587,1.558 -11.042,12.337 -18.629,13.896c-25.438,5.229 -72.825,-1.462 -235.771,36.867c-108.754,25.583 -345.788,185.896 -377.225,138.529c-196.071,-295.417 -193.538,-297.3 -218.879,-321.813Z" style="fill:#cf5350;"/><path d="M3941.658,7669.032c-12.742,57.767 -152,689.229 -246.062,697.296c-12.729,1.092 -143.329,-30.967 -131.354,-83.108c2.225,-9.683 91.912,-176.317 172.875,-488.808c5.783,-22.321 58.042,-184.654 5.279,-186.329c-124.838,-3.958 -176.833,29.271 -182.358,-95.95c-1.717,-38.883 14.992,-56.938 40.462,-64.796c67.296,-20.763 195.771,29.642 207.304,-44.867c9.35,-60.417 7.854,-202.888 76.238,-197.987c66.55,4.767 172.883,-2.15 128.967,73.167c-6.533,11.204 -56.488,155.879 12.242,148.212c147.383,-16.446 261.671,-105.267 289.117,-9.433c40.65,141.942 -33.462,123.762 -178.958,154.329c-120.625,25.342 -168.954,-23.413 -193.746,98.271l-0.004,0.004Z" style="fill:#e31622;"/><path d="M2513.133,8294.253c-148.533,20.633 -197.354,56.192 -233.704,-89.121c-23.05,-92.158 515.562,-22.267 532.896,-314.788c21.979,-370.904 -700.425,-50.062 -725.371,-59.362c-8.654,-3.229 -104.008,-139.671 -15.279,-165.104c197.033,-56.483 937.325,-318.487 909.583,255.5c-5.696,117.888 -94.037,204.354 -107.942,217.967c-120.004,117.462 -358.654,154.571 -360.188,154.913l0.004,-0.004Z" style="fill:#e31622;"/><path d="M154.15,5290.224c-49.688,-122.942 -229.754,-457.379 222.85,-890.846c45.9,-43.958 54.704,-12.838 85.95,43.546c196.383,354.387 351.258,578.558 352.117,596.708c6.917,146.413 -327.504,-375.6 -364.342,-375.183c-32.2,0.363 -275.558,304.592 -279.733,313.458c-14.375,30.542 312.067,421.408 341.292,456.404c25.042,29.983 -34.971,84.529 -80.808,137.558c-20.679,23.925 -80.925,66.312 -277.325,-281.646Z" style="fill:#e0dcc9;"/><path d="M1410.379,4733.182c450.692,-114.842 413.817,-238.233 646.954,-240.133c127.883,-1.042 303.35,107.175 315.413,120.754c19.946,22.442 20.55,137.775 16.417,143.025c-19.329,24.55 -23.996,2.025 -99.35,-41.808c-285.042,-165.817 -466.387,8.012 -580.462,69.675c-358.333,193.696 -547.533,-41.504 -746.788,399.771c-36.925,81.775 -120.454,-41.538 -104.133,-82.579c135.779,-341.442 339.413,-332.921 551.946,-368.704l0.004,-0Z" style="fill:#dfdcc8;"/><path d="M4936.516,5727.216c160.988,-81.429 175.688,-52.246 353.121,62.821c207.913,134.833 337.558,70.108 357.508,100.712c9.471,14.525 -0.942,16.842 -190.179,103.987c-95.838,44.137 -118.067,1.283 -207.071,-67.154c-300.783,-231.275 -336.287,84.371 -546.462,89.55c-251.162,6.192 -290.925,11.488 -358.112,252.113c-17.692,63.362 -213.933,80.188 -178.6,29.729c146,-208.483 86.254,-377.321 284.725,-408.55c246.271,-38.75 258.192,-12.087 485.067,-163.212l0.004,0.004Z" style="fill:#dfdcc9;"/><path d="M5928.137,8061.512c-22.083,32.742 -165.083,244.754 -389.375,303.475c-69.254,18.129 -177.796,-98.913 -93.275,-140.254c442.429,-216.408 402.612,-335.292 366.779,-933.142c-2.275,-37.938 16.908,-59.525 56.629,-58.325c91.246,2.763 159.438,-14.367 134.788,72.15c-41.75,146.554 95.092,414.829 -75.55,756.096l0.004,0Z" style="fill:#e31622;"/><path d="M512.304,4124.278c122.867,-94.112 122.762,-94.154 125.571,-96.013c40.158,-26.587 75.508,59.929 146.771,206.679c1.713,3.525 12.371,25.475 -2.608,48.904c-66.192,103.55 231.492,477.829 196.058,524.112c-8.875,11.596 -90.629,118.383 -114.679,141.996c-38.892,38.188 -381.133,-597.108 -421.188,-685.471c-37.533,-82.804 1.6,-80.388 70.075,-140.212l0,0.004Z" style="fill:#e1ddca;"/><path d="M1933.429,4730.212c70.854,-21.363 119.421,-52.983 265.362,10.596c169.821,73.979 191.858,70.308 238.633,251.079c19.492,75.329 -112.033,-26.508 -132.575,-40.396c-332.117,-224.496 -435.429,11.129 -530.908,6.483c-232.088,-11.296 -200.967,93.562 -285.458,106.55c-199.95,30.733 -254.913,-13.292 -394.208,273.113c-25.396,52.217 -108.425,-39.588 -93.958,-78.192c117.708,-314.092 226.938,-300.708 442.804,-328.737c252.221,-32.75 263.133,-96.017 490.304,-200.496l0.004,0Z" style="fill:#e0dcca;"/><path d="M2655.07,5726.47c-79.342,1.958 -122.721,23.196 -138.767,-41.654c-16.008,-64.692 -59.962,-113.337 -18.837,-114.146c226.225,-4.454 227.204,-7.1 521.012,-120.608c129.254,-49.938 354.25,-175.529 750.337,69.708c40.829,25.279 -10.675,131.7 -54.596,111.475c-499.996,-230.233 -515.992,-21.592 -1059.15,95.225Z" style="fill:#e1ddcb;"/><path d="M969.4,5898.687c626.304,-153.917 556.429,-530.108 1135.883,-404.15c41.362,8.992 4.75,34.538 2.367,36.196c-37.413,26.104 -64.667,71.429 -67.438,74.888c-47.854,59.746 -208.767,-66.979 -592.558,211.929c-254.05,184.621 -275.342,262.017 -553.729,116.267c-55.967,-29.3 68.817,-34.829 75.471,-35.125l0.004,-0.004Z" style="fill:#e0ddca;"/><path d="M1109.75,4733.791c-49.925,15.117 -56.096,34.971 -76.438,6.571c-4.529,-6.325 -209.754,-357.812 -193.433,-411.55c5.192,-17.096 230.908,-209.042 252.475,-168.679c34.521,64.608 27.292,66.054 202.654,394.321c35.225,65.938 72.929,119.2 39.367,126.546c-113.421,24.825 -113.667,16.175 -224.621,52.796l-0.004,-0.004Z" style="fill:#e0dbc7;"/><path d="M2184.254,6309.557c-61.454,-23.208 -36.254,-44.221 -55.825,-135.804c-24,-112.321 124.075,95.808 621.271,40.462c31.754,-3.533 324.829,211.829 457.546,-135.1c22.971,-60.05 230.762,-54.229 238.433,-53.533c50.629,4.604 -95.5,173.721 -127.846,181.446c-150.746,36 -148.021,39.517 -269.625,89.242c-218.404,89.304 -249.963,106.396 -863.954,13.292l0,-0.004Z" style="fill:#ded9c8;"/><path d="M5520.941,7716.237c-59.025,103.042 -58.4,103.267 -79.2,220.908c-1.488,8.421 -162.513,175.858 -190.979,-109.358c-19,-190.367 1.417,-552.079 82.496,-555.238c12.654,-0.492 180.592,-7.037 143.325,67.254c-48.558,96.804 -44.442,97.742 -50.288,204.458c-2.604,47.571 38.5,-9.908 75.754,20.987c95.629,79.308 27.133,135.629 18.892,150.987Z" style="fill:#e31622;"/><path d="M2724.862,5877.566c-23.479,44.554 -18.296,82.346 -210.038,67.717c-90.962,-6.942 -36.554,-51.067 2.454,-132.642c18.579,-38.85 142.35,-8.996 231.067,-40.729c354.625,-126.837 613.654,-272.525 926.812,-94.533c70.158,39.875 -15.483,135.087 -41.096,126.779c-185.312,-60.087 -218.1,-88.704 -491.288,-13.729c-56.358,15.467 -241.912,-157.579 -417.908,87.133l-0.004,0.004Z" style="fill:#dedac9;"/><path d="M1853.745,5911.587c17.117,-1.754 177.904,-18.233 214.512,15.442c188.212,173.133 252.612,49.962 334.858,62.054c126.858,18.646 125.792,16.542 252.825,16.096c20.496,-0.071 26.342,2.075 62.25,121.25c31.483,104.496 -432.325,-11.308 -628.037,-53.292c-41.7,-8.946 -121.663,-101.583 -254.371,-78.437c-124.092,21.642 -115.179,42.896 -193.413,142.442c-59.033,75.117 -218.338,6.013 -192.117,-19.271c117.796,-113.587 369.013,-195.087 403.496,-206.275l-0.004,-0.008Z" style="fill:#dedac9;"/><path d="M4515.841,4327.082c46.929,20.533 180.192,65.371 166.588,95.637c-49.354,109.792 -65.317,104.654 -74.929,101.562c-266.529,-85.746 -310.804,-209.146 -789.042,20.454c-125.25,60.133 -108.921,-87.771 -88.562,-98.712c461.587,-248.092 573.421,-196.296 785.95,-118.946l-0.004,0.004Z" style="fill:#dfdbc8;"/><path d="M4168.904,7899.37c87.925,27.533 120.658,44.8 66.9,120.058c-107.233,150.108 134.483,160.588 152.212,161.354c190.212,8.246 272.617,-32.308 273.558,71.792c1.138,126.1 -52.125,100 -178.733,98.533c-64.379,-0.746 -462.967,16.808 -440.467,-255.962c14.938,-181.108 108.042,-193.342 126.529,-195.771l0,-0.004Z" style="fill:#e31622;"/><path d="M6815.216,131.12c337.204,-71.946 368.65,-98.412 392.35,-21.533c39.846,129.258 -39.45,126.158 -95.033,137.246c-197.962,39.5 -590.488,124.608 -614.05,126.525c-31.192,2.533 -51.067,-110.833 -52.896,-121.258c-8.438,-48.121 20.525,-36.808 369.629,-120.979Z" style="fill:#e2decb;"/><path d="M5679.979,4560.357c-68.321,-3.646 -81.583,15.671 -96.354,-24.25c-36.017,-97.342 -102.208,-118.104 -44.888,-125.279c308.588,-38.617 314.017,2.446 801.633,330.9c41.125,27.7 98.196,214.346 30.017,179.167c-271.421,-140.05 -289.904,-318.367 -690.404,-360.537l-0.004,0Z" style="fill:#dfdbc8;"/><path d="M7017.966,937.703c232.483,-27.467 231.842,-29.829 252.092,-31.562c107.583,-9.188 83.788,134.367 78.517,148.033c-21.021,54.513 -721.587,92.613 -722.275,92.133c-11.996,-8.342 -22.842,-133.508 -21.667,-140.725c2.225,-13.683 6.658,-17.821 413.333,-67.879Z" style="fill:#e2ddcb;"/><path d="M5034.97,5910.007c23.2,0.204 122.954,1.083 261.379,125.654c6.25,5.625 10.304,22.029 -90.512,53.463c-58.075,18.108 -137.087,-84.917 -259.529,28.546c-106.671,98.85 -114.475,96.4 -258.721,89.7c-105.033,-4.879 -294.229,139.246 -280.175,60.658c33.771,-188.875 73.238,-191.125 264.383,-192.379c209.15,-1.371 186.121,-94.663 363.167,-165.646l0.008,0.004Z" style="fill:#e0dbc8;"/><path d="M2231.4,5547.616c261.396,-15.167 264.492,243.9 170.717,340.879c-229.987,237.846 -521.229,-253.467 -170.717,-340.879Z" style="fill:#8b9f9b;"/><path d="M3149.354,6016.287c-74.587,400.212 -526.271,113.508 -352.363,-126.671c81.721,-112.863 328.492,-138.113 352.363,126.671Z" style="fill:#8b9f9a;"/><path d="M4137.116,4919.453c47.438,-1.033 94.613,-11.296 220.229,24.071c146.387,41.217 160.733,69.271 167.537,82.575c50.083,97.921 100.013,99.354 64.029,117.771c-75.354,38.571 -173.862,-28.138 -231.546,-43.258c-313.488,-82.192 -549,85.054 -568.254,93.967c-44.721,20.7 -4.996,-98.671 0.892,-123.558c19.717,-83.338 317.454,-145.388 347.117,-151.567l-0.004,0Z" style="fill:#e0dcc9;"/><path d="M4388.204,4504.562c68.862,24.342 217.125,62.612 184.342,105.954c-28.238,37.333 -23.833,37.763 -47.562,79.221c-21.013,36.717 -271.696,-133.317 -590.546,9.85c-99.012,44.458 -132.404,108.879 -149.521,26.083c-24.438,-118.204 21.492,-109.454 130.65,-159.317c277.317,-126.679 381.346,-81.6 472.633,-61.788l0.004,-0.004Z" style="fill:#e0ddca;"/><path d="M6265.104,4925.716c104.062,66.417 151.562,53.087 131.825,175.587c-12.583,78.1 -47.667,36.975 -113.567,-6.242c-275.629,-180.767 -249.375,-236.867 -570.671,-314.308c-39.779,-9.587 -29.288,-76.233 -67.771,-116.6c-78.567,-82.404 162.571,-57.471 329.504,51.737c24,15.7 25.163,16.462 290.679,209.829l0,-0.004Z" style="fill:#e0dcca;"/><path d="M5017.358,4966.091c-44.95,10.754 -89.9,21.504 -134.854,32.258c-131.188,-414.504 461.913,-498.725 462.304,-147.792c0.05,45.113 -2.196,69.25 -74.221,157.163c-96.354,-42.058 -98.042,-31.271 -203.467,-41.608c-1.7,-14.708 -20.562,-177.738 92.567,-160.271c97.179,15.004 17.208,143.229 47.717,150.8c76.325,18.946 104.667,-176.421 -30.533,-204.717c-169.804,-35.533 -181.658,187.087 -178.333,197.725c2.483,7.95 16.333,8.492 18.817,16.442l0.004,-0Z" style="fill:#95a998;"/><path d="M1679.991,5907.316c-287.142,152.654 -301.05,208.529 -345.954,195.596c-14.454,-4.162 -175.333,-33.012 -83.908,-77.962c140.329,-69 433.092,-368.812 728.137,-337.971c37.829,3.954 42.842,151.696 15.554,153.742c-161.154,12.087 -160.804,10.667 -313.825,66.6l-0.004,-0.004Z" style="fill:#dfdbc9;"/><path d="M3931.379,4912.92c-71.267,32.329 -130.458,71.592 -132.029,17.104c-3.704,-128.292 33.325,-118.65 150.696,-168.021c41.4,-17.413 317.771,-133.663 561.221,14.567c65.979,40.175 22.112,156.738 -11.75,147.204c-185.1,-52.096 -256.062,-120.838 -568.133,-10.858l-0.004,0.004Z" style="fill:#dedbc7;"/><path d="M5966.258,5097.712c-130.033,-70.071 -130.163,-66.554 -271.729,-102.862c-23.742,-6.092 -80.279,-149.117 1.463,-155.321c166.021,-12.6 495.575,265.258 525.05,286.829c95.467,69.871 167.029,54.521 115.325,162.629c-41.567,86.913 -68.288,9.475 -370.104,-191.275l-0.004,0Z" style="fill:#e1ddcb;"/><path d="M2087.891,4919.245c162.683,35.529 141.871,80.842 364.671,180.175c14.179,6.321 120.242,158.171 45.896,151.688c-288.767,-25.179 -247.971,-214 -534.871,-174.054c-14.675,2.042 -138.125,-68.45 -60.846,-110.754c114.954,-62.933 144.421,-47.546 185.146,-47.05l0.004,-0.004Z" style="fill:#dfdbc8;"/><path d="M4111.416,7731.674c3.625,-50.417 9.513,-54.362 73.892,-71.679c26.879,-7.229 187.913,-50.55 344.6,-47.904c172.15,2.904 88.096,163.163 62.642,164.321c-99.637,4.533 -146.212,3.812 -201.458,9.362c-48.667,4.892 -104.058,14.65 -208.375,37.154c-70.375,15.183 -56.696,-19.883 -71.3,-91.258l0,0.004Z" style="fill:#dc202c;"/><path d="M3348.591,3716.307c-75.458,151.213 -71.675,185.975 -111.267,159.579c-73.946,-49.292 -75.804,-44.067 -154.175,-84.863c-23.292,-12.125 -75.267,-201.4 -2.337,-203.742c316.571,-10.175 331.45,-7.633 331.092,18.896c-0.137,10.163 -5.413,7.529 -63.312,110.129Z" style="fill:#e0ddca;"/><path d="M2277.341,5899.824c-318.712,-10.121 -101.021,-450.396 86.083,-269.4c9.038,8.742 67.425,65.225 45.792,150.375c-29.367,115.587 -119.842,115.6 -131.875,119.029l0,-0.004Z" style="fill:#384660;"/><path d="M2955.216,6163.87c-286.408,-23.325 -103.592,-441.671 93.329,-272.708c10.417,8.938 168.771,218.279 -93.329,272.708Z" style="fill:#3e4b65;"/><path d="M4882.504,4998.349c-17.833,7.742 -35.663,15.479 -53.496,23.221c-127.842,-436.133 430.575,-646.05 564.517,-233.379c29.362,90.471 -50.837,224.554 -61.075,241.671c-20.621,-7.383 -41.242,-14.763 -61.862,-22.146c72.025,-87.913 74.271,-112.046 74.221,-157.163c-0.392,-350.933 -593.492,-266.713 -462.304,147.792l0,0.004Z" style="fill:#e0ddca;"/><path d="M4415.995,5207.178c-398.308,58.971 -385.379,139.708 -469.921,120.613c-28.883,-6.525 -163.538,-66.004 -107.129,-96.312c163.317,-87.758 287.25,-92.329 313.392,-93.292c21.788,-0.804 266.846,-9.842 263.658,68.992Z" style="fill:#e1ddce;"/><path d="M3317.604,5970.687c-51.896,9.671 -98.812,22.738 -107.125,-3.412c-27.667,-87.029 -62.413,-122.604 27.767,-141.571c262.337,-55.183 384.529,38.158 371.279,60.988c-4.946,8.525 -46.829,80.687 -86.058,88.167c-16.179,3.083 -15.775,-17.462 -205.862,-4.167l0,-0.004Z" style="fill:#dfdcca;"/><path d="M5902.895,5129.67c56.812,34.579 357.912,234.583 365.9,254.962c39.012,99.575 -95.529,-77.275 -288.833,-128.029c-173.692,-45.604 -407.837,-59.654 -360.217,-120.479c56.621,-72.317 56.721,-82.762 106.117,-74.358c66.529,11.317 163.533,60.988 177.038,67.9l-0.004,0.004Z" style="fill:#dcd9ca;"/><path d="M1365.887,5141.191c26.146,-2.05 51.633,-9.779 77.779,-11.829c30.238,-2.371 23.388,115.862 -15.125,133.629c-236.846,109.258 -147.758,286.367 -220.579,230.654c-68.417,-52.342 -83.621,-60.179 -51.021,-140.154c81.333,-199.538 174.658,-200.521 208.946,-212.296l0,-0.004Z" style="fill:#e1dcca;"/><path d="M845.566,8073.237c154.488,40.567 -36.725,220.367 -167.554,110.171c-12.271,-10.333 -87.608,-131.15 167.554,-110.171Z" style="fill:#f6f3ec;"/><path d="M5017.358,4966.091c-2.483,-7.95 -16.333,-8.492 -18.817,-16.442c-3.325,-10.638 8.529,-233.258 178.333,-197.725c135.2,28.292 106.858,223.663 30.533,204.717c-30.508,-7.575 49.462,-135.8 -47.717,-150.8c-113.133,-17.467 -94.271,145.562 -92.567,160.271l-49.767,-0.017l0,-0.004Z" style="fill:#dedbc7;"/><path d="M1805.558,5102.132c-9.825,-6.338 -79.488,-51.267 -144.488,-21.867c-105.908,47.896 -87.225,175.908 -87.575,180.533c-2.087,27.421 -48.292,58.312 -52.371,-0.712c-22.25,-321.892 376.704,-265.054 377.642,-94.625c0.396,72.421 -78.867,-49.829 -93.204,-63.329l-0.004,0Z" style="fill:#8ea09a;"/><path d="M1724.804,6140.882c172.883,-206.992 376.392,20.229 348.475,127.242c-1.413,5.408 -32.288,39.675 -52.321,-46.333c-9.95,-42.729 -139.2,-239.763 -277.567,-15.688c-2.85,4.617 -65.95,20.587 -18.588,-65.225l0,0.004Z" style="fill:#8a9f9b;"/><path d="M1221.987,1694.645c-81.3,0.483 -46.925,-51.071 -14.892,-55.2c235.762,-30.392 443.925,-62.267 387.833,9.408c-18.525,23.671 -24.292,9.804 -372.946,45.792l0.004,0Z" style="fill:#dddcce;"/><path d="M813.287,7676.445c-9.133,-0.283 -109.242,-3.367 -112.092,-21.892c-4.492,-29.196 69.358,-48.167 27.162,-92.587c-18.346,-19.313 -4.554,-31.975 6.367,-31.95c90.233,0.204 148.588,-10.317 150.288,45.379c0.188,6.154 2.129,69.713 -0.379,76.946c-10.867,31.329 -21.1,17.629 -71.35,24.1l0.004,0.004Z" style="fill:#f7f5f0;"/><path d="M2954.929,5927.895c182.838,40.263 13.129,225.908 -56.229,144c-11.996,-14.167 -78.104,-120.275 56.229,-144Z" style="fill:#e6e3d3;"/><path d="M3145.641,6319.812c115.442,-36.121 114.392,-37.137 124.675,-39.008c7.467,-1.358 36.25,2.2 -6.017,94.671c-6.233,13.638 -10.908,14.05 -247.325,22.142c-112.292,3.842 117.275,-73.946 128.667,-77.804Z" style="fill:#dedbce;"/><path d="M5704.975,7589.953c0.862,32.538 7.221,271.754 -105.038,393.071c-107.938,116.646 50.688,-220.2 59.042,-237.942c17.317,-36.775 23.608,-37.925 21.954,-139.283l24.038,-15.846l0.004,0Z" style="fill:#505a6d;"/><path d="M2057.604,5127.803c18.871,3.9 122.604,25.346 217.783,102.875c71.958,58.612 -33.075,7.133 -265.675,-31.921c-6.754,-1.133 -86.233,-60.604 47.892,-70.954Z" style="fill:#dfdccf;"/><path d="M652.695,5614.695c-117.587,-8.354 -205.117,21.367 -143.158,-42.775c11.217,-11.612 52.1,-82.542 93.804,-39.408c46.229,47.812 46.679,47.663 49.354,82.183Z" style="fill:#d9d8c4;"/><path d="M2244.225,5739.945c185.821,45.812 8.9,88.417 2.042,87.154c-39.304,-7.246 -132.092,-109.95 -2.042,-87.154Z" style="fill:#dddbca;"/><path d="M1711.283,5140.916c189.175,54.158 -63.75,102.017 -71.95,84.767c-25.383,-53.408 63.483,-82.042 71.95,-84.767Z" style="fill:#d5d3c4;"/><path d="M1853.558,6247.307c-33.754,-11.296 -49.45,-11.658 -32.892,-42.496c47.708,-88.85 209.425,73.546 110.804,58.242c-26.183,-4.062 -51.729,-11.683 -77.912,-15.746Z" style="fill:#dfded0;"/><path d="M1332.683,5448.562c-1.242,-6.962 -13.408,-8.388 -14.646,-15.346c-3.358,-18.858 110.742,-130.979 140.833,-110.421c32.746,22.367 -3.262,26.354 -126.188,125.767Z" style="fill:#cacdcd;"/><path d="M2236.916,5677.741c-2.337,-41.462 16.158,-34.704 55.858,-22.067c244.483,77.808 -51.192,23.217 -55.858,22.067Z" style="fill:#e0dbc8;"/><path d="M5050.395,6116.057c154.125,2.758 -16.412,40.542 -16.412,40.542c0,0 13.183,-39.2 16.412,-40.542Z" style="fill:#e0dbc8;"/><g><path d="M566.083,6316.432c1230.337,704.371 3660.846,923.821 5340.904,-4.592c12.492,2.108 -3.988,22.929 -69.638,116.729c-58.438,-36.854 -38.721,72.55 -805.642,314.992c-571.867,180.783 -1070.688,206.1 -1165.338,210.904c-3.517,0.179 -1336.046,188.233 -2703.333,-297.229c-292.263,-103.771 -480.042,-210.125 -519.642,-232.55c-6.937,-3.929 -37.237,-12.017 -38.004,-12.171c-4.283,-0.85 -52.513,-77.567 -52.513,-77.592c0.363,-7.538 -28.567,-31.533 13.208,-18.492l-0.004,-0Z" style="fill:#e31622;"/><path d="M433.958,6078.453c1295.283,773.567 3854.083,1014.575 5622.821,-5.042c3.942,0.692 1.967,11.083 -6.283,24.154c-20.388,32.287 -52.392,87.342 -62.858,104.046c-61.525,-40.475 -44.933,79.675 -852.333,345.938c-602.054,198.542 -1127.204,226.346 -1226.85,231.621c-3.7,0.196 -1406.567,206.725 -2846.029,-326.429c-307.692,-113.963 -505.383,-230.767 -547.071,-255.396c-7.304,-4.317 -43.367,-13.196 -44.179,-13.367c-3.45,-0.717 -1.633,0.275 -58.488,-105.192c-3.842,-7.129 10.958,-3.692 21.271,-0.333Z" style="fill:#e31622;"/><path d="M321.054,5844.07c1347.2,839.979 4008.562,1101.679 5848.196,-5.475c5.196,0.954 0.446,5.733 -5.079,17.425c-9.017,19.083 -22.85,56.583 -58.671,125.946c-63.992,-43.95 -54.9,82.35 -894.663,371.471c-626.183,215.587 -1172.383,245.779 -1276.025,251.508c-3.85,0.212 -1462.946,224.471 -2960.104,-354.45c-320.025,-123.746 -525.637,-250.579 -568.996,-277.321c-7.596,-4.688 -44.938,-10.162 -45.783,-10.346c-2.579,-0.558 -23.733,-41.1 -38.408,-74.908c-12.012,-27.679 -21.058,-50.842 -0.467,-43.842l0,-0.008Z" style="fill:#e31622;"/></g></g></svg>